/* XPM */
static char *_cfa8a2a0bf64814a77dd06ac3b5455frjm6SwWOMFelkmBQ[] = {
/* columns rows colors chars-per-pixel */
"16 20 116 2 ",
"   c #3C1100",
".  c #4A0C00",
"X  c #482000",
"o  c #4C2500",
"O  c #472C00",
"+  c #4B2D00",
"@  c #4F2F00",
"#  c #583100",
"$  c #6E2F00",
"%  c #653500",
"&  c #713800",
"*  c #783A00",
"=  c #60451C",
"-  c #5F4731",
";  c #6B4B20",
":  c #B60000",
">  c #B80000",
",  c #BE0000",
"<  c #8F3200",
"1  c #803D00",
"2  c #A23200",
"3  c #A63300",
"4  c #A43700",
"5  c #A53A00",
"6  c #A33C00",
"7  c #A73D00",
"8  c #A93B00",
"9  c #AB3F00",
"0  c #C20E0E",
"q  c #C21622",
"w  c #8E4100",
"e  c #914200",
"r  c #A64300",
"t  c #A04600",
"y  c #A34700",
"u  c #A94200",
"i  c #AF4000",
"p  c #AB4600",
"a  c #AD4500",
"s  c #A74800",
"d  c #AE4800",
"f  c #AF4A00",
"g  c #B04A00",
"h  c #B24B00",
"j  c #B74D00",
"k  c #AA5200",
"l  c #B05008",
"z  c #B45C17",
"x  c #A05B28",
"c  c #B56E36",
"v  c #BF7239",
"b  c #DC5500",
"n  c #EC4800",
"m  c #EC4C00",
"M  c #ED5100",
"N  c #F06400",
"B  c #E47E0F",
"V  c #E36A16",
"C  c #F37214",
"Z  c #C14022",
"A  c #F17825",
"S  c #D24D4D",
"D  c #D8575D",
"F  c #D5626C",
"G  c #FFB100",
"H  c #FFB600",
"J  c #FFB700",
"K  c #FFBD00",
"L  c #FA8D34",
"P  c #FFC300",
"I  c #FFC612",
"U  c #FFE31D",
"Y  c #FFD03E",
"T  c #BF8B60",
"R  c #C7814C",
"E  c #F49A5D",
"W  c #CF956A",
"Q  c #CF976C",
"!  c #FAB472",
"~  c #FFD453",
"^  c #FFDF7B",
"/  c #AE9D85",
"(  c #B1A089",
")  c #B6A796",
"_  c #B8A995",
"`  c #BEAF9C",
"'  c #E28C8C",
"]  c #D1A685",
"[  c #C3B6A4",
"{  c #E5A2AD",
"}  c #EEBEBE",
"|  c #FFEC84",
" . c #E4C1A8",
".. c #F0D1BA",
"X. c #FFEFBF",
"o. c #C8C4CB",
"O. c #DAD7D0",
"+. c #DBDAD3",
"@. c #EDD5C3",
"#. c #EFDCCD",
"$. c #FAD7CE",
"%. c #FFF0C6",
"&. c #E7E1DA",
"*. c #E8E4DD",
"=. c #F0E0D3",
"-. c #F5E9E1",
";. c #F5EAE1",
":. c #FBEFEF",
">. c #F8F2E5",
",. c #F5E5F0",
"<. c #F6F4F1",
"1. c #FCF0F7",
"2. c #F8F7F5",
"3. c #FBF8F5",
"4. c #FDF7FF",
"5. c white",
/* pixels */
"5.5.5.5.5.5.E A 5.5.5.5.5.5.5.5.",
"5.5.5.~ 5.5.m n 5.5.2.5.5.5.5.5.",
"5.5.X.G ^ 5.m M 5., , 5.5.5.5.5.",
"5.5.%.H Y 4.m N ,.: 0 5.5.5.5.5.",
"o ) 5.H I 1.m C { > S 5.5.5.5.5.",
"; X 5.H K $.m L F : ' 5.5.5.5.5.",
"/   o.P P ! M L q > } 5.5.5.5.5.",
"2.  - U K B b V > > :.5.5.5.5.5.",
"5.= $ d 7 r s s k 3 5.5.5...#.5.",
"5.] i p d d g g a z 5.5.x . 9 | ",
"5.@.6 d d j w 1 d l 5.Q 8 < Z 5.",
"5.-.5 d y % + + & g u 7 2 >.D 5.",
"5.5.2 d e # @ + w d d 7 W 5.5.5.",
"5.5.v u t * & s h d p u 5.5.5.5.",
"5.5.3.2 a g h d g p 2 -.5.5.5.5.",
"5.5.5.=.5 u u p 5 p -.5.5.5.5.5.",
"5.5.5.5.5.T R c  .5.5.5.5.5.5.5.",
"5.5.5.5.5.O.5.+.5.5.5.5.5.5.5.5.",
"5.5.5.5.5.( 5._ <.5.5.5.5.5.5.5.",
"5.5.5.5.&.` 5.[ *.5.5.5.5.5.5.5."
};
