/* XPM */
static char *ea418eccb61e4fb9f5aaa753e57fe538c7H8AEBJhC8RAnQw[] = {
/* columns rows colors chars-per-pixel */
"32 40 156 2 ",
"   c #200000",
".  c #2E0000",
"X  c #380C00",
"o  c #3C1200",
"O  c #3A1B00",
"+  c #3D2900",
"@  c #441B00",
"#  c #701400",
"$  c #4C2600",
"%  c #452B00",
"&  c #4C2D00",
"*  c #542300",
"=  c #522D00",
"-  c #5D2800",
";  c #563100",
":  c #5B3400",
">  c #43231C",
",  c #613300",
"<  c #6C3700",
"1  c #753800",
"2  c #7B3A00",
"3  c #5F3C20",
"4  c #6B4B34",
"5  c #715338",
"6  c #75574A",
"7  c #7A615A",
"8  c #7E6E6B",
"9  c #9A1F00",
"0  c #A10400",
"q  c #AE0000",
"w  c #B30000",
"e  c #BD0000",
"r  c #BE0C07",
"t  c #B51B00",
"y  c #BD161B",
"u  c #9B2200",
"i  c #9F2B00",
"p  c #833D00",
"a  c #9E3300",
"s  c #A62A00",
"d  c #A33501",
"f  c #A53B00",
"g  c #AA3804",
"h  c #A73F12",
"j  c #C10000",
"k  c #C11A1C",
"l  c #EA3600",
"z  c #EA3800",
"x  c #C52A2A",
"c  c #8E4000",
"v  c #954300",
"b  c #A54600",
"n  c #AA4400",
"m  c #A64800",
"M  c #AD4A00",
"N  c #AB460E",
"B  c #B14705",
"V  c #BE4700",
"C  c #B24B00",
"Z  c #BB4E00",
"A  c #AA5400",
"S  c #B55500",
"D  c #AF5422",
"F  c #B2562B",
"G  c #B55F32",
"H  c #C44704",
"J  c #C25000",
"K  c #CA5300",
"L  c #EB4300",
"P  c #EC4D00",
"I  c #F14300",
"U  c #ED5400",
"Y  c #EE5C00",
"T  c #F35C00",
"R  c #C97000",
"E  c #D17E00",
"W  c #EF6100",
"Q  c #F56300",
"!  c #EF641A",
"~  c #C16538",
"^  c #EF6F2E",
"/  c #EF6E31",
"(  c #F17835",
")  c #846A5B",
"_  c #BB6948",
"`  c #846960",
"'  c #896F60",
"]  c #8A7269",
"[  c #8F786F",
"{  c #947D6F",
"}  c #967F77",
"|  c #CC4747",
" . c #C17857",
".. c #D16767",
"X. c #D46C6E",
"o. c #DB7D7D",
"O. c #E1A100",
"+. c #FFAD00",
"@. c #FFB300",
"#. c #F7BA00",
"$. c #FFBD00",
"%. c #FFC000",
"&. c #FFD000",
"*. c #FFC623",
"=. c #9B8576",
"-. c #988279",
";. c #F58A4C",
":. c #F18255",
">. c #C88569",
",. c #CE8B78",
"<. c #F79768",
"1. c #F49E7F",
"2. c #FFCF57",
"3. c #FFD36B",
"4. c #FFD779",
"5. c #FFD67B",
"6. c #FFFF63",
"7. c #FFEE7C",
"8. c #D27981",
"9. c #9C8582",
"0. c #AA9796",
"q. c #CC8E83",
"w. c #DE8D8D",
"e. c #CF9682",
"r. c #E49A9A",
"t. c #D4A286",
"y. c #FDB482",
"u. c #F8BE9A",
"i. c #C2B4AE",
"p. c #DDB5AA",
"a. c #C6B8B8",
"s. c #E5A6A9",
"d. c #E7B8B8",
"f. c #FFD680",
"g. c #FFE99E",
"h. c #F8C2A6",
"j. c #E6C9BA",
"k. c #FFE6A4",
"l. c #B6AEC1",
"z. c #CEC3C0",
"x. c #EDD8CB",
"c. c #FBD7CA",
"v. c #F8DBDA",
"b. c #FFECC9",
"n. c #FFFFD2",
"m. c #FFF8D7",
"M. c #E5E0E0",
"N. c #E9E4E2",
"B. c #F6E1E1",
"V. c #F5EAE4",
"C. c #F4EDEA",
"Z. c #FFF7E2",
"A. c #F4F2EE",
"S. c #FAF6F0",
"D. c #FAF7F6",
"F. c #FFFFFF",
/* pixels */
"F.F.F.F.F.F.F.F.F.F.F.F.F./ Y v.F.F.F.F.F.F.F.F.F.F.F.F.F.F.F.F.",
"F.F.F.F.F.F.F.F.F.F.F.F.:.Y Y U F.F.F.F.F.F.F.F.F.F.F.F.F.F.F.F.",
"F.F.F.F.F.F.F.Z.F.F.F.F.P Y W l F.F.F.F.F.F.F.F.F.F.F.F.F.F.F.F.",
"F.F.F.F.F.S.+.+.b.F.F.F.l W W z F.F.F.s.w.F.F.F.F.F.F.F.F.F.F.F.",
"F.F.F.F.F.4.$.$.$.F.F.F.L W W l F.F.d.q w X.F.F.F.F.F.F.F.F.F.F.",
"F.F.F.F.F.3.$.$.@.D.F.c.P W W P F.F.w e e x F.F.F.F.F.F.F.F.F.F.",
"F.F.F.F.F.4.$.$.$.k.F.c.P W W Y F.s.e e e x F.F.F.F.F.F.F.F.F.F.",
"F.F.F.F.F.4.$.$.@.f.F.h.U W W ! F...e e e X.F.F.F.F.F.F.F.F.F.F.",
"=.  ' F.F.g.@.%.$.2.F.u.U W Y ^ F.x e j e w.F.F.F.F.F.F.F.F.F.F.",
"$ ; . A.F.m.@.$.$.*.F.1.Y Y Y ^ F.w e e w B.F.F.F.F.F.F.F.F.F.F.",
"5 = = 6 F.F.@.%.$.@.F.<.Y W T ( D.w e j q F.F.F.F.F.F.F.F.F.F.F.",
"9.$ ; . F.F.+.$.$.+.F.( Y Q Y ;.s.w e e r F.F.F.F.F.F.F.F.F.F.F.",
"N.o ; $ { F.@.$.%.$.n.! W W Y <.8.e e e | F.F.F.F.F.F.F.F.F.F.F.",
"F.@ ; ; X F.$.%.$.$.k.L W W Y y.y e e e 8.F.F.F.F.F.F.F.F.F.F.F.",
"F.} $ ; @ l.*.$.$.%.7.I Q Q T y.q j e e r.F.F.F.F.F.F.F.F.F.F.F.",
"F.F.. ; = > 6.&.#.O.E V Z J K H t r j w v.F.F.F.F.F.F.F.F.F.F.F.",
"F.F.3 & & $ S d a f b M M m M M M A A 0 F.F.F.F.F.F.F.F.F.F.F.F.",
"F.F.0.O p J n M M M M M M M M M M M n b F.F.F.F.F.F.t.~ _ x.F.F.",
"F.F.F.# Z M M M M M M M M M M M M M n G F.F.F.F.D.g H @ g R +.4.",
"F.F.F.B M M M M M M M M M M M M M M n >.F.F.F.F.s O - @ C d n.F.",
"F.F.F. .n M M M M M M M C Z C Z M M n  .F.F.F._ n Z n * C ,.F.F.",
"F.F.F.q.n M M M M M M Z c & & & b C M d F.F.>.d M M M C w X.F.F.",
"F.F.F.t.f M M M M C M ; % ; ; ; + Z M n N f f M M M d F.k o.F.F.",
"F.F.D.j.f M M M C , & = ; ; ; ; & v M M M M M M M u F.F.y B.F.F.",
"F.F.F.V.i M M M b J 2 & ; ; ; ; + C M M M M M M d p.F.F.F.F.F.F.",
"F.F.F.F.u M M C b + % < = ; ; % v C M M M M M M h F.F.F.F.F.F.F.",
"F.F.F.F._ n M M p b K : & + < C C M M M M M M 9 C.F.F.F.F.F.F.F.",
"F.F.F.F.F.u M M C b & 1 v Z C M M M M M M M f >.F.F.F.F.F.F.F.F.",
"F.F.F.F.F. .f M M M Z C C M M M M M M M M n N F.F.F.F.F.F.F.F.F.",
"F.F.F.F.F.F.d M M M M M M M M M M M M M n i F.F.F.F.F.F.F.F.F.F.",
"F.F.F.F.F.F.F.i n M M M M M M M M M M f h F.F.F.F.F.F.F.F.F.F.F.",
"F.F.F.F.F.F.F.F.F i M M M M M M M n u e.F.F.F.F.F.F.F.F.F.F.F.F.",
"F.F.F.F.F.F.F.F.F.j.D u d f f g i >.F.F.F.F.F.F.F.F.F.F.F.F.F.F.",
"F.F.F.F.F.F.F.F.F.F.8 F.j.p.j.=.F.F.F.F.F.F.F.F.F.F.F.F.F.F.F.F.",
"F.F.F.F.F.F.F.F.F.F.` F.F.F.F.-.F.F.F.F.F.F.F.F.F.F.F.F.F.F.F.F.",
"F.F.F.F.F.F.F.F.F.F.` F.F.F.F.[ F.F.F.F.F.F.F.F.F.F.F.F.F.F.F.F.",
"F.F.F.F.F.F.F.F.F.F.] F.F.F.F.} F.F.F.F.F.F.F.F.F.F.F.F.F.F.F.F.",
"F.F.F.F.F.F.F.F.F.F.o z.F.F.C.o a.F.F.F.F.F.F.F.F.F.F.F.F.F.F.F.",
"F.F.F.F.F.F.F.F.M.4 i.7 F.N.4 a.) F.F.F.F.F.F.F.F.F.F.F.F.F.F.F.",
"F.F.F.F.F.F.F.F.F.F.{ F.A.F.F.=.F.D.F.F.F.F.F.F.F.F.F.F.F.F.F.F."
};
