/* XPM */
static char *f0cdd840c0664d6bedb85ae12eb4266c88Phgzc3Vq2xHVL8[] = {
/* columns rows colors chars-per-pixel */
"64 80 191 2 ",
"   c #010000",
".  c #250000",
"X  c #2C0000",
"o  c #320600",
"O  c #360C00",
"+  c #390E00",
"@  c #291100",
"#  c #3D1400",
"$  c #371A00",
"%  c #3E2500",
"&  c #441B00",
"*  c #441A07",
"=  c #4C2500",
"-  c #452C00",
";  c #4C2D00",
":  c #4E2708",
">  c #522D00",
",  c #512C0B",
"<  c #563100",
"1  c #593201",
"2  c #492214",
"3  c #502B1E",
"4  c #5B371C",
"5  c #6A2D00",
"6  c #633400",
"7  c #6C3700",
"8  c #773300",
"9  c #743900",
"0  c #7C3C00",
"q  c #5B382A",
"w  c #6B4A2E",
"e  c #6C4C31",
"r  c #705139",
"t  c #6C4C47",
"y  c #775943",
"u  c #775957",
"i  c #7D6148",
"p  c #7C6050",
"a  c #7F6567",
"s  c #801A00",
"d  c #AF0000",
"f  c #B40000",
"g  c #BE0000",
"h  c #BD0909",
"j  c #BA1300",
"k  c #BE1E1E",
"l  c #9C2600",
"z  c #9E2A00",
"x  c #833800",
"c  c #8A3E00",
"v  c #9B3100",
"b  c #A02E00",
"n  c #A23200",
"m  c #A53B00",
"M  c #AB3D00",
"N  c #B33200",
"B  c #BC3F29",
"V  c #C10000",
"C  c #C01618",
"Z  c #EA3C00",
"A  c #C52727",
"S  c #C93A3A",
"D  c #8D4000",
"F  c #934200",
"G  c #9C4400",
"H  c #A34600",
"J  c #AA4400",
"K  c #AD4A00",
"L  c #AB480A",
"P  c #B04300",
"I  c #B34C00",
"U  c #BA4E00",
"Y  c #AA5300",
"T  c #B65500",
"R  c #AC4912",
"E  c #B25216",
"W  c #AC7614",
"Q  c #AE5120",
"!  c #B45A29",
"~  c #BB6A3E",
"^  c #C35300",
"/  c #EB4200",
"(  c #ED4D00",
")  c #E45200",
"_  c #ED5400",
"`  c #E35D00",
"'  c #EE5B00",
"]  c #F05500",
"[  c #C77200",
"{  c #EF6100",
"}  c #EE640E",
"|  c #F16100",
" . c #EF6A1A",
".. c #D44834",
"X. c #F06E22",
"o. c #F17932",
"O. c #F17D3C",
"+. c #846858",
"@. c #8A705E",
"#. c #BC6D45",
"$. c #BB7548",
"%. c #BF7350",
"&. c #8D7463",
"*. c #8D756B",
"=. c #927B6D",
"-. c #9F7C68",
";. c #CE5252",
":. c #CF5555",
">. c #D36666",
",. c #C37C60",
"<. c #D57377",
"1. c #D97D7D",
"2. c #D68800",
"3. c #DF9900",
"4. c #FFAE00",
"5. c #F1A70B",
"6. c #FFB300",
"7. c #FFBE00",
"8. c #FBBF07",
"9. c #FFC200",
"0. c #FFCA00",
"q. c #FFC116",
"w. c #FFC11D",
"e. c #FFC938",
"r. c #988276",
"t. c #C6815E",
"y. c #F28349",
"u. c #F38B58",
"i. c #C78569",
"p. c #CC8F79",
"a. c #CE947A",
"s. c #D19B7B",
"d. c #F39568",
"f. c #F49B78",
"g. c #D3A07C",
"h. c #F5A67F",
"j. c #FFCD4E",
"k. c #FFCE51",
"l. c #FFD15A",
"z. c #FFD568",
"x. c #FFD97E",
"c. c #A18D83",
"v. c #A79488",
"b. c #A59697",
"n. c #BDAC9E",
"m. c #BDAFA9",
"M. c #DB8484",
"N. c #DF8888",
"B. c #D29D84",
"V. c #E59B9B",
"C. c #D6A58B",
"Z. c #D7A795",
"A. c #DAAD94",
"S. c #DCB39C",
"D. c #F5A780",
"F. c #F7B489",
"G. c #EBA497",
"H. c #F8B997",
"J. c #DEB6A5",
"K. c #C2B6B0",
"L. c #E4A7A7",
"P. c #E0BCA5",
"I. c #EAB4B5",
"U. c #FFDB87",
"Y. c #FFDE94",
"T. c #FFE28A",
"R. c #FFF39C",
"E. c #D0C6B7",
"W. c #E6CAB9",
"Q. c #FACDB2",
"!. c #FFE5A0",
"~. c #FFEBB6",
"^. c #DCD6CC",
"/. c #DCD4D0",
"(. c #EEC1C1",
"). c #EBD3C2",
"_. c #EAD2CE",
"`. c #E7D9CC",
"'. c #FBDCCB",
"]. c #F4D9D4",
"[. c #FEEEC4",
"{. c #FFF0CC",
"}. c #EAE5DD",
"|. c #F7E5D7",
" X c #FFF5DB",
".X c #F6ECE4",
"XX c #FAEBEB",
"oX c #FCF6E9",
"OX c #FAF4F3",
"+X c #FEFCF5",
"@X c #FFFFFF",
/* pixels */
"@X@X@X@X@X@X@X@X@X@X@X@X@X@X@X@X@X@X@X@X@X@X@X@X@X@X]. .' y.+X@X@X@X@X@X@X@X@X@X@X@X@X@X@X@X@X@X@X@X@X@X@X@X@X@X@X@X@X@X@X@X@X@X",
"@X@X@X@X@X@X@X@X@X@X@X@X@X@X@X@X@X@X@X@X@X@X@X@X@X'.Z ' { ' Z @X@X@X@X@X@X@X@X@X@X@X@X@X@X@X@X@X@X@X@X@X@X@X@X@X@X@X@X@X@X@X@X@X",
"@X@X@X@X@X@X@X@X@X@X@X@X@X@X@X@X@X@X@X@X@X@X@X@X@X/ | | { { ' f.@X@X@X@X@X@X@X@X@X@X@X@X@X@X@X@X@X@X@X@X@X@X@X@X@X@X@X@X@X@X@X@X",
"@X@X@X@X@X@X@X@X@X@X@X@X@X@X@X@X@X@X@X@X@X@X@X@XF._ { | { { ' } @X@X@X@X@X@X@X@X@X@X@X@X@X@X@X@X@X@X@X@X@X@X@X@X@X@X@X@X@X@X@X@X",
"@X@X@X@X@X@X@X@X@X@X@X@X@X@X@X@X@X@X@X@X@X@X@X@XO.' { { { { { Z @X@X@X@X@X@X@X@X@X@X@X@X@X@X@X@X@X@X@X@X@X@X@X@X@X@X@X@X@X@X@X@X",
"@X@X@X@X@X@X@X@X@X@X@X@X@X[.z.oX@X@X@X@X@X@X@X@X' ' { { { { | Z @X@X@X@X@X@X@X@X@X@X@X@X@X@X@X@X@X@X@X@X@X@X@X@X@X@X@X@X@X@X@X@X",
"@X@X@X@X@X@X@X@X@X@X@X@Xw.6.7.4.{.@X@X@X@X@X@X@X/ { { { { { { / @X@X@X@X@X@X@X@X@X@X@X@X@X@X@X@X@X@X@X@X@X@X@X@X@X@X@X@X@X@X@X@X",
"@X@X@X@X@X@X@X@X@X@X@Xl.6.9.7.9.4.@X@X@X@X@X@X@X/ { { { ' { { Z @X@X@X@X@X@XI.g f >.@X@X@X@X@X@X@X@X@X@X@X@X@X@X@X@X@X@X@X@X@X@X",
"@X@X@X@X@X@X@X@X@X@X@X6.9.7.9.7.6.x.@X@X@X@X@X|.( { { { { { { Z @X@X@X@X@XL.d g g g k @X@X@X@X@X@X@X@X@X@X@X@X@X@X@X@X@X@X@X@X@X",
"@X@X@X@X@X@X@X@X@X@X@X6.7.7.7.7.9.6.@X@X@X@X@XQ._ { { { { { { / @X@X@X@XOXd g g g g f _.@X@X@X@X@X@X@X@X@X@X@X@X@X@X@X@X@X@X@X@X",
"@X@X@X@X@X@X@X@X@X@XoX6.9.7.7.9.7.6.oX@X@X@X@XF._ { { { { { ' ' @X@X@X@X..f g V g V g 1.@X@X@X@X@X@X@X@X@X@X@X@X@X@X@X@X@X@X@X@X",
"@X@X@X@X@X@X@X@X@X@X X6.7.7.7.7.9.7.U.@X@X@X@Xh._ { { { { { '  .@X@X@XOXf V g g V g g 1.@X@X@X@X@X@X@X@X@X@X@X@X@X@X@X@X@X@X@X@X",
"@X@X@X@X@X@X@X@X@X@XoX6.7.7.9.7.7.7.z.@X@X@X@Xf.' { { { { { ' o.@X@X@X<.g g g V g g g 1.@X@X@X@X@X@X@X@X@X@X@X@X@X@X@X@X@X@X@X@X",
"@X@X@X@X@X@X@X@X@X@X@X6.7.7.7.7.7.7.8.@X@X@X@Xu.' { { { { { ' O.@X@X@Xh g g g V g V h N.@X@X@X@X@X@X@X@X@X@X@X@X@X@X@X@X@X@X@X@X",
"@X@X@X@X@X@X@X@X@X@X@X6.9.7.7.9.7.9.6.@X@X@X@Xy.' { { { { { ' y.@X@X@Xf g V g g g g g I.@X@X@X@X@X@X@X@X@X@X@X@X@X@X@X@X@X@X@X@X",
"@X@X@X@X@X@X@X@X@X@X@X6.7.7.7.7.7.7.6.@X@X@X@XO.' { { { { | _ d.@X@XI.f g g V g V g d @X@X@X@X@X@X@X@X@X@X@X@X@X@X@X@X@X@X@X@X@X",
"@Xy # & r @X@X@X@X@X@Xq.7.7.9.7.7.7.6. X@X@X@Xo.' { { { { { ' f.@X@X1.f V g g g g g f @X@X@X@X@X@X@X@X@X@X@X@X@X@X@X@X@X@X@X@X@X",
"r.& < < & =.@X@X@X@X@Xj.7.7.7.7.9.7.6.!.@X@X@XX.' { { { { { ' D.@X@X;.g g g V V g g S @X@X@X@X@X@X@X@X@X@X@X@X@X@X@X@X@X@X@X@X@X",
"1 < < < 1 o @X@X@X@X@Xx.7.7.9.7.7.7.7.x.@X@X@X( ' | { { { { ' D.@X@Xg g V g V g V g 1.@X@X@X@X@X@X@X@X@X@X@X@X@X@X@X@X@X@X@X@X@X",
"< < < < > ; i @X@X@X@XT.6.7.7.7.7.7.7.k.@X@X@X/ { { { { { { _ h.@X@Xf g V g g g g f I.@X@X@X@X@X@X@X@X@X@X@X@X@X@X@X@X@X@X@X@X@X",
"i > < < 1 < o @X@X@X@X~.7.7.7.7.7.7.7.8.@X@X+X/ { { { { { { _ h.@X(.f V g g V V V f @X@X@X@X@X@X@X@X@X@X@X@X@X@X@X@X@X@X@X@X@X@X",
"v.= < < < < = &.@X@X@X X6.9.7.7.7.7.7.6.@X@X'.( { { { { { | ' F.@XM.g V V g g g g f @X@X@X@X@X@X@X@X@X@X@X@X@X@X@X@X@X@X@X@X@X@X",
"`.# < < < < < + @X@X@X@X4.7.7.9.9.7.7.6.+X@XH._ { { { { { { _ H.@X;.g g g V g g g A @X@X@X@X@X@X@X@X@X@X@X@X@X@X@X@X@X@X@X@X@X@X",
"@X+ < < 1 < > = v.@X@X@X6.7.7.7.7.7.9.6.~.@Xh.' { { { { { { ( Q.@Xf g g g V g g h >.@X@X@X@X@X@X@X@X@X@X@X@X@X@X@X@X@X@X@X@X@X@X",
"@X@.= < < < 1 < = @X@X@X6.7.7.7.7.7.7.6.U.@Xd.' ' { { { { { _ Q.@Xf g V g g g V g N.@X@X@X@X@X@X@X@X@X@X@X@X@X@X@X@X@X@X@X@X@X@X",
"@XE.# < < < < < # /.@X@X7.7.7.7.9.7.9.9.k.@Xo.' { { { | | | ( Q.I.f g V g V V g f I.@X@X@X@X@X@X@X@X@X@X@X@X@X@X@X@X@X@X@X@X@X@X",
"@X@X# < < < < < ; y @X@Xw.7.7.9.7.9.7.7.7.@X' { { { { { | | ( [.<.g g g g V g g f @X@X@X@X@X@X@X@X@X@X@X@X@X@X@X@X@X@X@X@X@X@X@X",
"@X@X*.; < < < < > o @X@Xe.7.7.7.7.7.7.7.4.@X/ | { { { { ' ' ( |.C g g g g g g V f @X@X@X@X@X@X@X@X@X@X@X@X@X@X@X@X@X@X@X@X@X@X@X",
"@X@X}.+ < < < 1 1 = =.@Xk.7.7.7.7.7.9.7.6.+XZ | { { { { { { _ oXd g g g V g g g h @X@X@X@X@X@X@X@X@X@X@X@X@X@X@X@X@X@X@X@X@X@X@X",
"@X@X@X, > < < < > 1 + @Xz.7.7.7.7.7.7.0.7.U.( | { | { { { { ] G.g V g V g V g g ;.@X@X@X@X@X@X@X@X@X@X@X@X@X@X@X@X@X@X@X@X@X@X@X",
"@X@X@Xc.= < < < 1 < = b.T.7.7.7.9.0.0.0.0.5.) ` ` ` ` { ' | | ..g g g g g g g g 1.@X@X@X@X@X@X@X@X@X@X@X@X@X@X@X@X@X@X@X@X@X@X@X",
"@X@X@X@Xo < < < < < > # R.0.0.8.5.2.[ T K H H H H H H H H H K J J M N j g g g g V.@X@X@X@X@X@X@X@X@X@X@X@X@X@X@X@X@X@X@X@X@X@X@X",
"@X@X@X@Xe > < < < < > % W [ T J m m J K J K K K K K K K K K K K K K K Y K N j f ].@X@X@X@X@X@X@X@X@X@X@X@X@X@X@X@X@X@X@X@X@X@X@X",
"@X@X@X@XK.& < 1 < > > F M H K K K K K K K K K K K K K K K K K K K K K K K Y Y z @X@X@X@X@X@X@X@X@X@X@X@X@X@X@X@X@X@X@X@X@X@X@X@X",
"@X@X@X@X@Xo > < ; 7 I I K I K K K K K K K K K K K K K K K K K K K K K K K K K L @X@X@X@X@X@X@X@X@X@X@X@X@X.XW.g.A.].@X@X@X@X@X@X",
"@X@X@X@X@Xy ; ; F U K K K K K K K K K K K K K K K K K K K K K K K K K K K K K #.@X@X@X@X@X@X@X@X@X@X@XOX%.m b m m b Q [. X X+X@X",
"@X@X@X@X@Xn.$ H I K K K K K K K K K K K K K K K K K K K K K K K K K K K K K H p.@X@X@X@X@X@X@X@X@X@XC.b J K U K I K v 6.6.7.6.Y.",
"@X@X@X@X@X@Xs I K K K K K K K K K K K K K K K K K K K K K K K K K K K K K K m C.@X@X@X@X@X@X@X@X@X,.n K K ^ @   H K v 0.9.6.U.@X",
"@X@X@X@X@X@XE J K K K K K K K K K K K K K K K K K K K K K K K K K K K K K K n ).@X@X@X@X@X@X@X@Xi.n U     `     c I m 3.9. X@X@X",
"@X@X@X@X@X@Xp.J K K K K K K K K K K K K K K K K K K K K K K K K K K K K I K b .X@X@X@X@X@X@X@XJ.z K U     ^ I G I K K z @X@X@X@X",
"@X@X@X@X@X@XS.m K K K K K K K K K K K K K K K K K K K K K K K K K K K K K K n ].@X@X@X@X@X@X@Xz K K I K K I 8 8 I K m A.@X@X@X@X",
"@X@X@X@X@X@X].b K K K K K K K K K K K K K K K K K K I I K K T I K K K K K K m J.@X@X@X@X@X@Xt.M K K K K I 5   I K Y B @X@X@X@X@X",
"@X@X@X@X@X@X@Xl K K K K K K K K K K K K K K K K U K 9 < < < < x I K K K K K K i.@X@X@X@X@Xa.n K K K K K K I ^ K Y j f XX@X@X@X@X",
"@X@X@X@X@X@X@Xz K J K K K K K K K K K K K K I I 0 - > < < < > ; > I K K K K K n @X@X@XoX#.n K K K K K K K K n $.f V f XX@X@X@X@X",
"@X@X@X@X@X@X@Xm K K K K K K K K K K K K K I G < > < < < < < < < < < U K K K K J J s.#.m M K K K K K K K K z A.@X;.g f @X@X@X@X@X",
"@X@X@X@X@X@X@XE K K K K K K K K K K K I I 7 ; < < < < < < < < < < - G K K K K K K m H K K K K K K K K K z J.@X@XM.g A @X@X@X@X@X",
"@X@X@X@X@X@X@X~ J K K K K K K K K K T c ; ; < < < < < < < 1 < < < < 9 I K K K K K K K K K K K K K K K n a.@X@X@X;.f :.@X@X@X@X@X",
"@X@X@X@X@X@X@Xi.J K K K K K K K I F > % < 7 < < < < < < < < 1 < < > 9 I K K K K K K K K K K K K K K K R @X@X@X@X].k XX@X@X@X@X@X",
"@X@X@X@X@X@X@XB.m K K K K K K K K F G K U 0 > < < < < < < < < < < ; c K K K K K K K K K K K K K K K l oX@X@X@X@X@X@X@X@X@X@X@X@X",
"@X@X@X@X@X@X@X).n K K K K K K K K K U K > ; < < < < < < < < < < < - U K K K K K K K K K K K K K K m a.@X@X@X@X@X@X@X@X@X@X@X@X@X",
"@X@X@X@X@X@X@X@Xl K K K K K K K K U D - < < < ; < < < < < < < < - G I K K K K K K K K K K K K K K n @X@X@X@X@X@X@X@X@X@X@X@X@X@X",
"@X@X@X@X@X@X@X@X! K K K K K K K I 6 - ; ; > 7 D > < < < < < ; ; H I K K K K K K K K K K K K K J z ).@X@X@X@X@X@X@X@X@X@X@X@X@X@X",
"@X@X@X@X@X@X@X@XC.m K K K K K K 6 7 x F H U K < < < < > ; ; 0 I I K K K K K K K K K K K K K K K ! @X@X@X@X@X@X@X@X@X@X@X@X@X@X@X",
"@X@X@X@X@X@X@X@X@Xl K K K K K K I I I I U F - > < > - 1 x I I K K K K K K K K K K K K K K K K l @X@X@X@X@X@X@X@X@X@X@X@X@X@X@X@X",
"@X@X@X@X@X@X@X@X@Xt.m K K K K K K K K U 9 - - ; 1 0 H I I K K K K K K K K K I K K K K K K K n A.@X@X@X@X@X@X@X@X@X@X@X@X@X@X@X@X",
"@X@X@X@X@X@X@X@X@X@Xl K K K K K K K K 6 7 c H I T I I K K K K K K K K K K K K K K K K K K J ! @X@X@X@X@X@X@X@X@X@X@X@X@X@X@X@X@X",
"@X@X@X@X@X@X@X@X@X@XB.n K K K K K K K I I I K K K K K K K K K K K K K K K K K K K K K K K b @X@X@X@X@X@X@X@X@X@X@X@X@X@X@X@X@X@X",
"@X@X@X@X@X@X@X@X@X@X@Xm K K K K K K K K K K K K K K K K K K K K K K K K K K K K K K K K z ].@X@X@X@X@X@X@X@X@X@X@X@X@X@X@X@X@X@X",
"@X@X@X@X@X@X@X@X@X@X@X.Xl K K K K K K K K K K K K K K K K K I K K K K K K K K K K K K l E.@X@X@X@X@X@X@X@X@X@X@X@X@X@X@X@X@X@X@X",
"@X@X@X@X@X@X@X@X@X@X@X@XJ.z K K K K K K K K K K K K K K K K K K K K K K K K K K K K l J.@X@X@X@X@X@X@X@X@X@X@X@X@X@X@X@X@X@X@X@X",
"@X@X@X@X@X@X@X@X@X@X@X@X@XZ.z K K K K K K K K K K K K K K K K K K K K K K K K K K l J.@X@X@X@X@X@X@X@X@X@X@X@X@X@X@X@X@X@X@X@X@X",
"@X@X@X@X@X@X@X@X@X@X@X@X@X@XZ.l K J K K K K K K K K K K K K K K K K K K K K K J n ).@X@X@X@X@X@X@X@X@X@X@X@X@X@X@X@X@X@X@X@X@X@X",
"@X@X@X@X@X@X@X@X@X@X@X@X@X@X@XW.l K K K K K K K K K K K K K K K K K K K K P z ~ @X@X@X@X@X@X@X@X@X@X@X@X@X@X@X@X@X@X@X@X@X@X@X@X",
"@X@X@X@X@X@X@X@X@X@X@X@X@X@X@X@XOX! b K K K K K K K K K K K K K K K K K n R `.@X@X@X@X@X@X@X@X@X@X@X@X@X@X@X@X@X@X@X@X@X@X@X@X@X",
"@X@X@X@X@X@X@X@X@X@X@X@X@X@X@X@X@X@XP.L b P J K K K K K K K K K K K z R P.@X@X@X@X@X@X@X@X@X@X@X@X@X@X@X@X@X@X@X@X@X@X@X@X@X@X@X",
"@X@X@X@X@X@X@X@X@X@X@X@X@X@X@X@X@X@X@X@X).x M b M J J J J m J M z #.W.@X@X@X@X@X@X@X@X@X@X@X@X@X@X@X@X@X@X@X@X@X@X@X@X@X@X@X@X@X",
"@X@X@X@X@X@X@X@X@X@X@X@X@X@X@X@X@X@X@X@X@XO @X`.s.i.%.#.%.i.$.-.@X@X@X@X@X@X@X@X@X@X@X@X@X@X@X@X@X@X@X@X@X@X@X@X@X@X@X@X@X@X@X@X",
"@X@X@X@X@X@X@X@X@X@X@X@X@X@X@X@X@X@X@X@X@X+ @X@X@X@X@X@X@X@X/.a @X@X@X@X@X@X@X@X@X@X@X@X@X@X@X@X@X@X@X@X@X@X@X@X@X@X@X@X@X@X@X@X",
"@X@X@X@X@X@X@X@X@X@X@X@X@X@X@X@X@X@X@X@X@X+ @X@X@X@X@X@X@X@X}.t @X@X@X@X@X@X@X@X@X@X@X@X@X@X@X@X@X@X@X@X@X@X@X@X@X@X@X@X@X@X@X@X",
"@X@X@X@X@X@X@X@X@X@X@X@X@X@X@X@X@X@X@X@X@X+ @X@X@X@X@X@X@X@X@Xq @X@X@X@X@X@X@X@X@X@X@X@X@X@X@X@X@X@X@X@X@X@X@X@X@X@X@X@X@X@X@X@X",
"@X@X@X@X@X@X@X@X@X@X@X@X@X@X@X@X@X@X@X@X@X+ @X@X@X@X@X@X@X@X@X3 @X@X@X@X@X@X@X@X@X@X@X@X@X@X@X@X@X@X@X@X@X@X@X@X@X@X@X@X@X@X@X@X",
"@X@X@X@X@X@X@X@X@X@X@X@X@X@X@X@X@X@X@X@X@X+ @X@X@X@X@X@X@X@X@X2 @X@X@X@X@X@X@X@X@X@X@X@X@X@X@X@X@X@X@X@X@X@X@X@X@X@X@X@X@X@X@X@X",
"@X@X@X@X@X@X@X@X@X@X@X@X@X@X@X@X@X@X@X@X@XO @X@X@X@X@X@X@X@X@X* @X@X@X@X@X@X@X@X@X@X@X@X@X@X@X@X@X@X@X@X@X@X@X@X@X@X@X@X@X@X@X@X",
"@X@X@X@X@X@X@X@X@X@X@X@X@X@X@X@X@X@X@X@X@X# @X@X@X@X@X@X@X@X@X3 @X@X@X@X@X@X@X@X@X@X@X@X@X@X@X@X@X@X@X@X@X@X@X@X@X@X@X@X@X@X@X@X",
"@X@X@X@X@X@X@X@X@X@X@X@X@X@X@X@X@X@X@X@Xc.X .X@X@X@X@X@X@X@Xe X }.@X@X@X@X@X@X@X@X@X@X@X@X@X@X@X@X@X@X@X@X@X@X@X@X@X@X@X@X@X@X@X",
"@X@X@X@X@X@X@X@X@X@X@X@X@X@X@X@X@X@X@Xv.w e o @X@X@X@X@X@X+.@.p X @X@X@X@X@X@X@X@X@X@X@X@X@X@X@X@X@X@X@X@X@X@X@X@X@X@X@X@X@X@X@X",
"@X@X@X@X@X@X@X@X@X@X@X@X@X@X@X@X@X@Xr.: +Xu m.@.@X@X@X@X=.q @Xu ^.q @X@X@X@X@X@X@X@X@X@X@X@X@X@X@X@X@X@X@X@X@X@X@X@X@X@X@X@X@X@X",
"@X@X@X@X@X@X@X@X@X@X@X@X@X@X@X@X@Xr.q @XK.=.@X. @X@X@Xc.4 @XE.&.@X2 `.@X@X@X@X@X@X@X@X@X@X@X@X@X@X@X@X@X@X@X@X@X@X@X@X@X@X@X@X@X",
"@X@X@X@X@X@X@X@X@X@X@X@X@X@X@X@X@X@X@X@X*.n.@XK.^.@X@X@X@X@X=.r.@X}.}.@X@X@X@X@X@X@X@X@X@X@X@X@X@X@X@X@X@X@X@X@X@X@X@X@X@X@X@X@X",
"@X@X@X@X@X@X@X@X@X@X@X@X@X@X@X@X@X@X@X@Xq @X@X@X@X@X@X@X@X@X=.oX@X@X@X@X@X@X@X@X@X@X@X@X@X@X@X@X@X@X@X@X@X@X@X@X@X@X@X@X@X@X@X@X"
};
